<svg width="24" height="25" viewBox="0 0 24 25" fill="none" xmlns="http://www.w3.org/2000/svg">
<g id="Pulse">
<path id="Vector" d="M22.5 12.5C22.5 12.6989 22.421 12.8897 22.2803 13.0303C22.1397 13.171 21.9489 13.25 21.75 13.25H19.2131L15.6713 20.3356C15.6089 20.4602 15.5131 20.565 15.3945 20.6382C15.2759 20.7114 15.1393 20.7501 15 20.75H14.9625C14.817 20.7428 14.6768 20.6934 14.5589 20.6079C14.441 20.5223 14.3506 20.4042 14.2987 20.2681L8.93906 6.19626L5.9325 12.8103C5.87294 12.9414 5.77691 13.0525 5.65589 13.1305C5.53487 13.2085 5.39396 13.25 5.25 13.25H2.25C2.05109 13.25 1.86032 13.171 1.71967 13.0303C1.57902 12.8897 1.5 12.6989 1.5 12.5C1.5 12.3011 1.57902 12.1103 1.71967 11.9697C1.86032 11.829 2.05109 11.75 2.25 11.75H4.76719L8.3175 3.9397C8.37871 3.80492 8.47843 3.69127 8.6041 3.61306C8.72978 3.53484 8.87579 3.49557 9.02375 3.50018C9.1717 3.50479 9.31498 3.55308 9.43554 3.63897C9.5561 3.72486 9.64855 3.8445 9.70125 3.98283L15.0928 18.1391L18.0788 12.1663C18.1408 12.0413 18.2366 11.9362 18.3551 11.8626C18.4737 11.7891 18.6105 11.7501 18.75 11.75H21.75C21.9489 11.75 22.1397 11.829 22.2803 11.9697C22.421 12.1103 22.5 12.3011 22.5 12.5Z" fill="#196CFF"/>
</g>
</svg>
